<?xml version="1.0" encoding="UTF-8"?>
<svg id="_レイヤー_1" data-name="レイヤー_1" xmlns="http://www.w3.org/2000/svg" xmlns:xlink="http://www.w3.org/1999/xlink" version="1.1" viewBox="0 0 200 200">
  <!-- Generator: Adobe Illustrator 30.3.0, SVG Export Plug-In . SVG Version: 2.1.3 Build 182)  -->
  <defs>
    <style>
      .st0 {
        fill: none;
      }

      .st1 {
        fill: #ac9eff;
      }

      .st2 {
        fill: #fff;
      }

      .st3 {
        fill: #6248f7;
      }

      .st4 {
        clip-path: url(#clippath);
      }
    </style>
    <clipPath id="clippath">
      <rect class="st0" width="200" height="200"/>
    </clipPath>
  </defs>
  <g class="st4">
    <g>
      <circle class="st2" cx="100" cy="100" r="100"/>
      <path class="st3" d="M96.31,64.27c2.46-1.74,5.81-1.74,8.27,0,6.86,4.86,14.99,8.03,23.8,8.91,2.72.27,5.22,1.85,6.22,4.4,1.66,4.25,3.04,8.64,4.12,13.14.27,1.13,1.83,1.3,2.27.22,1.98-4.83,3.59-9.84,4.81-15.01.61-2.6,2.56-4.68,5.06-5.62,3.16-1.17,6.16-2.66,8.99-4.41,2.17-1.35,5.13-.64,6.05,1.75,3,7.84,4.65,16.35,4.65,25.24,0,38.96-31.59,70.55-70.55,70.55S29.45,131.85,29.45,92.89c0-9.08,1.72-17.76,4.84-25.73.94-2.4,3.93-3.08,6.09-1.68,7.8,5.03,17.09,7.96,27.07,7.96,10.75,0,20.71-3.4,28.86-9.17Z"/>
      <path class="st1" d="M100,101c16.18,0,31.09,5.45,43,14.61,10.96,8.44,10.96,24.78,0,33.22-11.9,9.16-26.81,14.61-43,14.61s-31.09-5.45-43-14.61c-10.96-8.44-10.96-24.78,0-33.22,11.9-9.16,26.81-14.61,43-14.61Z"/>
    </g>
  </g>
</svg>