<svg width="600" height="200" viewBox="0 0 600 200" fill="none" xmlns="http://www.w3.org/2000/svg">
<path d="M270.5 132L269.5 125.9C267.9 128.033 266 129.667 263.8 130.8C261.6 131.933 258.667 132.5 255 132.5C251.533 132.5 248.533 131.933 246 130.8C243.467 129.6 241.5 127.967 240.1 125.9C238.767 123.767 238.1 121.3 238.1 118.5C238.1 114.3 239.633 110.8 242.7 108C245.833 105.133 250.4 103.367 256.4 102.7L269.5 101.3V97.4C269.5 95.8 268.8 94.3667 267.4 93.1C266 91.7667 263.767 91.1 260.7 91.1C258.033 91.1 255.7 91.7667 253.7 93.1C251.767 94.3667 250.467 96.3 249.8 98.9L240 95.3C241.267 90.9 243.767 87.4667 247.5 85C251.3 82.5333 255.9 81.3 261.3 81.3C267.833 81.3 272.733 82.9333 276 86.2C279.267 89.4667 280.9 93.6333 280.9 98.7V132H270.5ZM269.5 110L257.5 111.5C254.967 111.833 253.067 112.567 251.8 113.7C250.533 114.767 249.9 116.133 249.9 117.8C249.9 119.333 250.5 120.667 251.7 121.8C252.967 122.867 254.667 123.4 256.8 123.4C259.533 123.4 261.833 122.9 263.7 121.9C265.633 120.9 267.067 119.467 268 117.6C269 115.733 269.5 113.433 269.5 110.7V110ZM295.034 82H306.334V132H295.034V82ZM300.734 74.4C298.668 74.4 296.934 73.7 295.534 72.3C294.134 70.9 293.434 69.2333 293.434 67.3C293.434 65.2333 294.134 63.5 295.534 62.1C296.934 60.7 298.668 60 300.734 60C302.734 60 304.434 60.7 305.834 62.1C307.234 63.5 307.934 65.2333 307.934 67.3C307.934 69.2333 307.234 70.9 305.834 72.3C304.434 73.7 302.734 74.4 300.734 74.4ZM321.266 82H331.466L332.266 86.7C333.933 85.0333 335.9 83.7333 338.166 82.8C340.433 81.8 342.9 81.3 345.566 81.3C348.9 81.3 351.9 82 354.566 83.4C357.233 84.7333 359.4 86.7 361.066 89.3C362.8 86.7 365.166 84.7333 368.166 83.4C371.166 82 374.4 81.3 377.866 81.3C381.8 81.3 385.2 82.1333 388.066 83.8C391 85.4 393.266 87.8 394.866 91C396.466 94.1333 397.266 98.0667 397.266 102.8V132H385.866V104.3C385.866 100.1 384.966 96.9333 383.166 94.8C381.433 92.6667 378.866 91.6 375.466 91.6C372 91.6 369.3 92.7 367.366 94.9C365.433 97.0333 364.466 100.233 364.466 104.5V132H353.166V104.3C353.166 100.1 352.333 96.9333 350.666 94.8C349.066 92.6667 346.566 91.6 343.166 91.6C339.7 91.6 337.066 92.7 335.266 94.9C333.466 97.0333 332.566 100.2 332.566 104.4V132H321.266V82ZM432.143 132.7C427.143 132.7 422.743 131.6 418.943 129.4C415.21 127.2 412.276 124.133 410.143 120.2C408.076 116.267 407.043 111.733 407.043 106.6C407.043 101.733 408.076 97.4 410.143 93.6C412.21 89.8 415.076 86.8 418.743 84.6C422.41 82.4 426.576 81.3 431.243 81.3C435.976 81.3 440.143 82.3333 443.743 84.4C447.343 86.4667 450.143 89.3667 452.143 93.1C454.21 96.7667 455.243 101.033 455.243 105.9C455.243 106.7 455.21 107.567 455.143 108.5C455.076 109.367 454.976 110.3 454.843 111.3H419.243C419.576 113.633 420.31 115.667 421.443 117.4C422.643 119.067 424.143 120.367 425.943 121.3C427.743 122.233 429.81 122.7 432.143 122.7C434.943 122.7 437.443 122.133 439.643 121C441.91 119.867 443.476 118.367 444.343 116.5L454.243 119.8C452.243 123.8 449.276 126.967 445.343 129.3C441.41 131.567 437.01 132.7 432.143 132.7ZM442.943 102.1C442.876 100.033 442.31 98.1667 441.243 96.5C440.176 94.8333 438.776 93.5333 437.043 92.6C435.31 91.6 433.376 91.1 431.243 91.1C429.376 91.1 427.61 91.5667 425.943 92.5C424.276 93.4333 422.843 94.7333 421.643 96.4C420.51 98 419.776 99.9 419.443 102.1H442.943ZM465.895 82H476.095L476.895 86.9C478.562 85.1667 480.529 83.8 482.795 82.8C485.129 81.8 487.629 81.3 490.295 81.3C494.229 81.3 497.595 82.1333 500.395 83.8C503.262 85.4 505.462 87.8 506.995 91C508.529 94.1333 509.295 98.0667 509.295 102.8V132H497.995V104.3C497.995 100.1 497.129 96.9333 495.395 94.8C493.729 92.6667 491.195 91.6 487.795 91.6C484.329 91.6 481.695 92.7 479.895 94.9C478.095 97.0333 477.195 100.2 477.195 104.4V132H465.895V82ZM524.955 82V68H536.455V82H548.155V91.9H536.455V114.1C536.455 117.1 537.021 119.2 538.155 120.4C539.288 121.533 540.755 122.167 542.555 122.3C544.421 122.367 546.288 122.267 548.155 122V131.6C545.288 132.2 542.455 132.367 539.655 132.1C536.921 131.9 534.455 131.167 532.255 129.9C530.055 128.567 528.288 126.633 526.955 124.1C525.621 121.567 524.955 118.233 524.955 114.1V91.9H517.955V82H524.955Z" fill="#6248F7"/>
<path d="M114.863 56.2698C117.325 54.5259 120.675 54.5259 123.137 56.2696C129.996 61.1266 138.13 64.2987 146.94 65.184C149.664 65.4577 152.159 67.0301 153.157 69.5798C154.819 73.8271 156.2 78.2156 157.275 82.7227C157.545 83.8563 159.106 84.0208 159.548 82.9426C161.528 78.1175 163.141 73.1032 164.354 67.9346C164.965 65.331 166.91 63.2502 169.417 62.3184C172.575 61.1446 175.582 59.6612 178.402 57.9046C180.575 56.5507 183.534 57.261 184.451 59.652C187.454 67.4887 189.1 75.9974 189.1 84.8906C189.1 123.854 157.513 155.44 118.55 155.44C79.5863 155.44 48.0001 123.854 48 84.8906C48 75.8118 49.7153 67.1336 52.839 59.1622C53.7783 56.765 56.7664 56.0859 58.9296 57.4819C66.7315 62.5169 76.0238 65.4404 86 65.4404C96.7518 65.4404 106.709 62.0449 114.863 56.2698Z" fill="#6248F7"/>
<path d="M118.55 93C134.732 93 149.642 98.4485 161.545 107.611C172.504 116.047 172.504 132.393 161.545 140.829C149.642 149.992 134.733 155.44 118.55 155.44C102.367 155.44 87.4564 149.992 75.5532 140.829C64.5947 132.393 64.5948 116.047 75.5535 107.611C87.4567 98.4485 102.367 93 118.55 93Z" fill="#AC9EFF"/>
</svg>
