<svg width="200" height="200" viewBox="0 0 200 200" fill="none" xmlns="http://www.w3.org/2000/svg">
<path d="M98.5908 39.5732C99.5243 38.8087 100.874 38.8087 101.808 39.5732C112.154 48.0471 125.383 53.1327 139.8 53.1327C142.136 53.1327 144.441 52.9981 146.707 52.7382C146.32 52.7835 146.074 53.1765 146.203 53.5439C148.551 60.2035 150.328 67.1328 151.475 74.2724C151.576 74.9002 152.455 74.9726 152.64 74.3642C154.955 66.7398 156.532 58.7939 157.287 50.6103C157.29 50.5772 157.259 50.5518 157.228 50.5614C163.405 48.6889 169.162 45.8471 174.319 42.2128C175.581 41.3238 177.367 41.7482 177.97 43.1689C182.29 53.3456 184.68 64.5405 184.68 76.2929C184.679 123.148 146.695 161.133 99.8398 161.133C52.9844 161.133 15.0005 123.148 15 76.2929C15 64.3844 17.4554 53.049 21.8848 42.7646C22.4975 41.342 24.2943 40.93 25.5508 41.8359C35.4108 48.9441 47.5161 53.1326 60.5996 53.1327C75.0161 53.1327 88.2448 48.0468 98.5908 39.5732Z" fill="#6248F7"/>
<path d="M99.1403 78.2893C130.835 78.2894 157.658 99.1459 166.635 127.883C151.128 148.099 126.727 161.133 99.2799 161.133C71.7162 161.133 47.2241 147.986 31.7272 127.623C40.7844 99.0203 67.5409 78.2893 99.1403 78.2893Z" fill="#AC9EFF"/>
</svg>
