<svg width="260" height="260" viewBox="0 0 260 260" fill="none" xmlns="http://www.w3.org/2000/svg">
<g clip-path="url(#clip0_63_102)">
<circle cx="129" cy="130" r="130" fill="white"/>
<path d="M128.591 82.5734C129.524 81.8089 130.874 81.8089 131.808 82.5734C142.154 91.0472 155.383 96.1319 169.8 96.132C172.174 96.132 174.516 95.993 176.818 95.7247C176.782 95.729 176.745 95.7332 176.708 95.7374C176.321 95.7823 176.073 96.1763 176.203 96.5441C178.551 103.204 180.328 110.133 181.475 117.273C181.576 117.9 182.455 117.973 182.64 117.364C184.948 109.761 186.524 101.839 187.281 93.6798C187.287 93.6139 187.225 93.562 187.161 93.5812C193.364 91.7092 199.143 88.8602 204.319 85.213C205.581 84.3241 207.367 84.7484 207.97 86.1691C212.29 96.3456 214.68 107.54 214.68 119.292C214.679 166.148 176.695 204.132 129.84 204.132C82.9843 204.132 45.0003 166.148 45 119.292C45 107.384 47.4555 96.049 51.8848 85.7648C52.4975 84.3422 54.2943 83.9293 55.5508 84.8351C65.4109 91.9434 77.516 96.1319 90.5996 96.132C105.016 96.132 118.245 91.0468 128.591 82.5734Z" fill="#6248F7"/>
<path d="M129.14 121.29C160.835 121.29 187.658 142.147 196.635 170.884C181.128 191.099 156.726 204.133 129.28 204.133C101.716 204.133 77.2241 190.987 61.7272 170.624C70.7844 142.021 97.5409 121.29 129.14 121.29Z" fill="#AC9EFF"/>
</g>
<defs>
<clipPath id="clip0_63_102">
<rect width="260" height="260" fill="white"/>
</clipPath>
</defs>
</svg>
