<svg width="100" height="100" viewBox="0 0 100 100" fill="none" xmlns="http://www.w3.org/2000/svg">
<path d="M50 0C77.6142 0 100 22.3858 100 50C100 77.6142 77.6142 100 50 100C39.7863 100 30.29 96.9345 22.375 91.6777L2 97.5L9.90918 79.8828C3.68526 71.5463 0 61.2036 0 50C0 22.3858 22.3858 0 50 0ZM59.208 33C57.4026 33 55.6836 33.3817 54.0518 34.1455C52.4199 34.9094 51.0135 35.9862 49.833 37.375C48.6525 35.9862 47.2461 34.9094 45.6143 34.1455C43.9824 33.3817 42.2634 33 40.458 33C37.1943 33.0001 34.4687 34.0938 32.2812 36.2812C30.0938 38.4687 29.0001 41.1943 29 44.458C29 46.0552 29.2695 47.6178 29.8076 49.1455C30.3458 50.6732 31.2914 52.349 32.6455 54.1719C33.9996 55.9947 35.8227 58.0521 38.1143 60.3438C40.4059 62.6354 43.3056 65.3608 46.8125 68.5205L49.833 71.2295L52.8545 68.5205C56.3612 65.361 59.2602 62.6353 61.5518 60.3438C63.8434 58.0521 65.6664 55.9948 67.0205 54.1719C68.3747 52.349 69.3212 50.6733 69.8594 49.1455C70.3975 47.6178 70.667 46.0551 70.667 44.458C70.6669 41.1943 69.5731 38.4687 67.3857 36.2812C65.1982 34.0937 62.4719 33 59.208 33Z" fill="#FF3B5C"/>
</svg>
